<?xml version="1.0" encoding="utf-8"?>
<!-- Generator: Adobe Illustrator 19.1.0, SVG Export Plug-In . SVG Version: 6.00 Build 0)  -->
<svg version="1.1" xmlns="http://www.w3.org/2000/svg" xmlns:xlink="http://www.w3.org/1999/xlink" x="0px" y="0px"
	 viewBox="0 0 576 504" style="enable-background:new 0 0 576 504;" xml:space="preserve">
<style type="text/css">
	.st0{fill:#FFFFFF;stroke:#716A93;stroke-width:13.5647;stroke-miterlimit:10;}
	.st1{fill:#B6AAD1;stroke:#716A93;stroke-width:13.5647;stroke-miterlimit:10;}
	.st2{fill:#E2D9E7;stroke:#716A93;stroke-width:13.5647;stroke-miterlimit:10;}
	.st3{fill:#B6AAD1;}
	.st4{fill:#716A93;}
	.st5{fill:#FFFFFF;}
	.st6{fill:#B6AAD1;stroke:#716A93;stroke-width:1.8086;}
	.st7{fill:#B6AAD1;stroke:#716A93;stroke-width:2.7129;}
	.st8{fill:#FFFFFF;stroke:#716A93;stroke-width:4.5216;}
	.st9{fill:none;}
	.st10{fill:#7B709A;}
	.st11{fill:none;stroke:#716A93;stroke-width:4.5216;stroke-linecap:round;}
	.st12{opacity:0.6;fill:#716A93;}
</style>
<g id="Layer_1">
</g>
<g id="Layer_2">
	<g>
		<g>
			<g>
				<path class="st0" d="M196.6,320.2l-8.4,5.1c0,0-4.4,2.7-6.9-1.4c-2.5-4.1-20.2-40.2-15-72.8c5.1-32.6,23.2-73.2,61.8-93.1
					s74.8-19.3,110-4.5s50.6,43.1,50.6,43.1s3.9,4.5,0.6,6.6C386,205.4,196.6,320.2,196.6,320.2z"/>
				<circle class="st1" cx="287.4" cy="263.8" r="140.2"/>
				<path class="st0" d="M391.8,201.7c-21.2-35.5-60-59.3-104.4-59.3c-67.1,0-121.5,54.4-121.5,121.5c0,23.2,6.5,45,17.8,63.4
					L391.8,201.7z"/>
				<path class="st2" d="M177.1,157.4h-1.6l-2.3-3.3c0,0,5.5-6.2,7.2-7.3c1.7-1.1,4.7-3.2,4.7-3.2s1.4-0.5,2.6,0.6s2,2.3,2,2.3
					L177.1,157.4z"/>
				<path class="st1" d="M171.2,187.4l-7.8-11.3c0,0,14.3-27.3,47.2-42.8l9.9,8.4"/>
				<path class="st1" d="M176.8,159.5l-21.3-22.9c0,0,2.6-9.5,13.7-11.9l21.6,22.2"/>
			</g>
			<g>
				<path class="st3" d="M139.8,126.5c-10.8,0-19.6-8.8-19.6-19.6s8.8-19.6,19.6-19.6s19.6,8.8,19.6,19.6S150.6,126.5,139.8,126.5z"
					/>
				<path class="st4" d="M139.8,89.5c9.6,0,17.3,7.8,17.3,17.3s-7.8,17.3-17.3,17.3s-17.3-7.8-17.3-17.3S130.2,89.5,139.8,89.5
					 M139.8,85c-12.1,0-21.9,9.8-21.9,21.9s9.8,21.9,21.9,21.9s21.9-9.8,21.9-21.9S151.9,85,139.8,85L139.8,85z"/>
			</g>
			<g>
				<path class="st5" d="M196.6,320.2l-8.4,5.1c0,0-4.4,2.7-6.9-1.4c-2.5-4.1-20.2-40.2-15-72.8c5.1-32.6,23.2-73.2,61.8-93.1
					s74.8-19.3,110-4.5s50.6,43.1,50.6,43.1s3.9,4.5,0.6,6.6C386,205.4,196.6,320.2,196.6,320.2z"/>
				<path class="st3" d="M176.8,159.5l-21.3-22.9c0,0,2.6-9.5,13.7-11.9l21.6,22.2"/>
				<path class="st6" d="M171.2,187.4l-7.8-11.3c0,0,14.3-27.3,47.2-42.8l9.9,8.4"/>
				<circle class="st7" cx="287.4" cy="263.8" r="140.2"/>
				<path class="st8" d="M391.8,201.7c-21.2-35.5-60-59.3-104.4-59.3c-67.1,0-121.5,54.4-121.5,121.5c0,23.2,6.5,45,17.8,63.4
					L391.8,201.7z"/>
				<path class="st9" d="M391.8,201.7c-21.2-35.5-60-59.3-104.4-59.3c-67.1,0-121.5,54.4-121.5,121.5c0,23.2,6.5,45,17.8,63.4
					L391.8,201.7z"/>
			</g>
			<g>
				<g id="XMLID_1_">
					<g>
						<path class="st5" d="M198.4,341.7l144.1-87.3c-18,43.3-0.4,89.8-26.4,109.3c-16.3,12.2-41.7,11.6-58.5,8.4
							C219.6,364.8,198.4,341.7,198.4,341.7z"/>
					</g>
				</g>
			</g>
			<circle class="st4" cx="303" cy="204.1" r="25.6"/>
			<circle class="st4" cx="226.3" cy="250.6" r="25.6"/>
			<circle class="st5" cx="206.4" cy="238.3" r="9.1"/>
			<circle class="st5" cx="280.7" cy="191.9" r="9.1"/>
			<g>
				<path class="st5" d="M210.2,279.5c0,0,16-13.3,35.3-3.6"/>
				<path class="st4" d="M210.2,279.5c0,0,0.3-0.5,1.1-1.2c0.4-0.4,0.8-0.8,1.4-1.3c0.6-0.5,1.2-1,2-1.5c0.4-0.3,0.8-0.5,1.2-0.8
					c0.4-0.2,0.9-0.5,1.3-0.7c0.9-0.5,1.9-0.9,3-1.4c0.5-0.2,1.1-0.4,1.7-0.6l0.8-0.3c0.3-0.1,0.6-0.1,0.9-0.2
					c0.6-0.1,1.2-0.3,1.8-0.4c0.6-0.1,1.2-0.2,1.8-0.3c0.6-0.1,1.2-0.2,1.8-0.2c0.6,0,1.2,0,1.8,0c0.6,0,1.2,0,1.8,0.1
					c0.6,0.1,1.2,0.2,1.7,0.2c0.3,0,0.6,0.1,0.8,0.1c0.3,0.1,0.5,0.1,0.8,0.2c0.5,0.1,1.1,0.3,1.6,0.4c0.5,0.2,1,0.2,1.5,0.5
					c0.5,0.2,0.9,0.4,1.3,0.6c0.8,0.4,1.6,0.7,2.2,1.1c0.6,0.4,1.2,0.8,1.6,1.1c0.9,0.6,1.3,1,1.3,1s-0.6-0.1-1.6-0.3
					c-0.5-0.1-1.1-0.2-1.8-0.4c-0.3-0.1-0.7-0.1-1.1-0.2c-0.4-0.1-0.8-0.1-1.2-0.2c-0.8-0.1-1.7-0.3-2.7-0.4c-0.5,0-1-0.1-1.5-0.1
					c-0.2,0-0.5-0.1-0.8-0.1c-0.3,0-0.5,0-0.8,0c-1,0-2.1-0.1-3.2,0c-0.5,0-1.1,0.1-1.6,0.1c-0.5,0-1.1,0.1-1.6,0.2
					c-0.5,0.1-1.1,0.1-1.6,0.2c-0.5,0.1-1.1,0.2-1.6,0.3c-1.1,0.2-2.1,0.5-3.1,0.7c-1,0.3-2,0.5-2.9,0.9c-0.9,0.3-1.8,0.6-2.6,0.9
					c-0.8,0.3-1.5,0.6-2.2,0.8c-0.6,0.3-1.2,0.5-1.7,0.7c-0.5,0.2-0.8,0.4-1.1,0.5C210.3,279.5,210.2,279.5,210.2,279.5z"/>
			</g>
			<g>
				<path class="st5" d="M338.6,203.1c0,0-19.6,7-21.1,28.5"/>
				<path class="st4" d="M338.6,203.1c0,0-0.1,0.1-0.4,0.3c-0.2,0.2-0.6,0.4-1,0.7c-0.4,0.3-0.9,0.7-1.5,1.1
					c-0.5,0.5-1.2,0.9-1.8,1.5c-0.7,0.5-1.4,1.2-2.1,1.8c-0.7,0.6-1.4,1.4-2.2,2.1c-0.7,0.8-1.5,1.5-2.2,2.4
					c-0.4,0.4-0.7,0.8-1.1,1.2c-0.4,0.4-0.7,0.9-1,1.3c-0.3,0.4-0.7,0.9-1,1.3c-0.3,0.5-0.6,0.9-0.9,1.4c-0.6,0.9-1.1,1.9-1.6,2.8
					c-0.1,0.2-0.3,0.4-0.4,0.7c-0.1,0.2-0.2,0.5-0.3,0.7c-0.2,0.5-0.4,0.9-0.6,1.3c-0.5,0.9-0.8,1.7-1.1,2.5
					c-0.2,0.4-0.3,0.8-0.4,1.1c-0.2,0.4-0.3,0.7-0.4,1.1c-0.2,0.7-0.4,1.3-0.6,1.8c-0.3,1-0.6,1.6-0.6,1.6s-0.1-0.6-0.2-1.6
					c0-0.5-0.1-1.2-0.1-1.9c0-0.7,0.1-1.6,0.2-2.5c0.1-0.5,0.1-0.9,0.2-1.4c0-0.5,0.2-1,0.3-1.5c0.1-0.5,0.3-1,0.4-1.6
					c0.1-0.3,0.1-0.5,0.2-0.8c0.1-0.3,0.2-0.5,0.3-0.8c0.2-0.5,0.5-1.1,0.7-1.6c0.2-0.6,0.5-1.1,0.8-1.6c0.3-0.5,0.6-1.1,0.9-1.6
					c0.3-0.5,0.7-1,1.1-1.5c0.4-0.5,0.7-1,1.2-1.4c0.4-0.5,0.8-0.9,1.3-1.3c0.2-0.2,0.4-0.4,0.6-0.6l0.7-0.6
					c0.5-0.4,0.9-0.8,1.3-1.1c0.9-0.7,1.8-1.3,2.7-1.9c0.5-0.3,0.9-0.5,1.3-0.8c0.4-0.2,0.9-0.4,1.3-0.6c0.8-0.4,1.6-0.7,2.3-0.9
					c0.7-0.2,1.3-0.4,1.8-0.5C338,203.1,338.6,203.1,338.6,203.1z"/>
			</g>
			<path class="st5" d="M138.9,122.3c0,0-12-0.3-14.2-12.9c-1-5.5,1.9-8.6,3.2-7.7C129.3,102.6,125.3,115.6,138.9,122.3z"/>
			
				<ellipse transform="matrix(-0.1567 0.9876 -0.9876 -0.1567 244.9314 -11.4356)" class="st5" cx="127.3" cy="98.8" rx="1.1" ry="1"/>
			<path class="st10" d="M140.7,91.6c0,0,12,0.3,14.2,12.9c1,5.5-1.9,8.6-3.2,7.7S154.3,98.3,140.7,91.6z"/>
			
				<ellipse transform="matrix(0.1567 -0.9876 0.9876 0.1567 14.7796 247.4156)" class="st10" cx="152.3" cy="115.1" rx="1.1" ry="1"/>
			<path class="st11" d="M342.5,254.3l-144.1,87.3c0,0,21.3,23.1,59.2,30.4c16.8,3.2,42.2,3.8,58.5-8.4
				C342.1,344.1,324.5,297.6,342.5,254.3z"/>
			<g>
				<path class="st4" d="M150.3,81.5c0,0,0.4-0.1,1.1-0.1c0.7,0,1.6,0,2.8,0.2c0.6,0.1,1.2,0.2,1.8,0.4c0.7,0.2,1.3,0.5,2,0.7
					c0.3,0.1,0.7,0.3,1,0.5c0.3,0.2,0.7,0.4,1,0.6c0.6,0.5,1.3,0.9,1.9,1.5c0.3,0.3,0.6,0.6,0.8,0.9c0.3,0.3,0.5,0.6,0.7,1
					c0.5,0.6,0.8,1.4,1.2,2c0.2,0.3,0.3,0.7,0.4,1c0.1,0.3,0.2,0.7,0.3,1c0.2,0.6,0.3,1.3,0.3,1.9c0.1,0.6,0.2,1.1,0.1,1.6
					c0,0.5-0.1,0.9-0.1,1.2c-0.1,0.7-0.1,1-0.1,1s-0.2-0.4-0.4-1c-0.1-0.3-0.2-0.7-0.4-1.1c-0.1-0.4-0.4-0.9-0.6-1.4
					c-0.2-0.5-0.4-1-0.7-1.6c-0.1-0.3-0.3-0.5-0.4-0.8l-0.2-0.4c-0.1-0.1-0.2-0.3-0.3-0.4c-0.4-0.5-0.7-1.1-1.2-1.6
					c-0.2-0.3-0.4-0.5-0.6-0.8c-0.2-0.3-0.5-0.5-0.7-0.7c-0.5-0.5-1-0.9-1.5-1.3c-0.5-0.4-1.1-0.8-1.6-1.1c-0.6-0.3-1.1-0.7-1.6-1
					c-0.5-0.3-1.1-0.6-1.5-0.8c-1-0.5-1.8-0.8-2.4-1.1C150.7,81.6,150.3,81.5,150.3,81.5z"/>
			</g>
			<g>
				<path class="st4" d="M129.3,131c0,0-0.4,0.1-1.1,0.1c-0.7,0-1.7-0.1-2.9-0.3c-0.6-0.1-1.2-0.3-1.9-0.5c-0.7-0.2-1.3-0.5-2-0.9
					c-0.4-0.2-0.7-0.4-1-0.6c-0.3-0.2-0.7-0.4-1-0.7c-0.6-0.5-1.3-1-1.9-1.7l-0.8-0.9c-0.2-0.3-0.5-0.7-0.7-1
					c-0.5-0.7-0.8-1.4-1.1-2.1c-0.4-0.7-0.5-1.5-0.7-2.1c-0.2-0.7-0.2-1.4-0.2-2c0-0.6-0.1-1.2,0-1.6c0.1-0.5,0.1-0.9,0.2-1.3
					c0.1-0.7,0.2-1.1,0.2-1.1s0.1,0.4,0.3,1c0.1,0.3,0.2,0.7,0.3,1.2c0,0.2,0.1,0.5,0.2,0.7c0.1,0.2,0.2,0.5,0.3,0.8
					c0.2,0.5,0.4,1.1,0.7,1.6c0.3,0.6,0.5,1.2,0.9,1.7c0.4,0.6,0.7,1.2,1.1,1.7c0.2,0.3,0.4,0.5,0.6,0.8l0.7,0.8
					c0.4,0.5,1,1,1.5,1.5c0.5,0.4,1.1,0.9,1.6,1.3c0.6,0.4,1.1,0.8,1.6,1.1c0.5,0.3,1.1,0.6,1.6,0.9c1,0.5,1.8,1,2.5,1.3
					C128.9,130.9,129.3,131,129.3,131z"/>
			</g>
		</g>
		<ellipse class="st12" cx="293.8" cy="421" rx="53.2" ry="3.4"/>
		<path class="st4" d="M232.6,363c0,0,12.5-2,38-15.2c0,0-16.9,14.3-29.7,19"/>
		<path class="st4" d="M332.2,302.7c0,0-7.4,10.9-20.3,21.1c0,0,15.2-8.1,21.6-15.7"/>
	</g>
</g>
</svg>
